<svg xmlns="http://www.w3.org/2000/svg" viewBox="0 0 1920 683" width="1920" height="683"><defs><image width="197" height="197" id="img1"></image></defs><style>
		tspan { white-space:pre }
		.shp0 { fill: #ee8274 } 
		.shp1 { fill: #60ccb4 } 
		.shp2 { fill: #1071b5 } 
		.shp3 { fill: #289ced } 
	</style><path id="Path 2" class="shp0" d="M1814.71 181.12C1816.01 181.79 1817.11 182.86 1817.81 184.26C1819.55 187.76 1818.12 192.01 1814.63 193.74L1755.86 223.01C1754.16 223.85 1752.21 223.98 1750.41 223.37C1748.62 222.75 1747.16 221.45 1746.34 219.75L1720.62 166.49L1667.45 192.38C1663.95 194.09 1659.72 192.63 1658.01 189.12C1656.3 185.61 1657.76 181.39 1661.27 179.68L1720.81 150.67C1722.5 149.85 1724.44 149.73 1726.22 150.35C1727.99 150.96 1729.45 152.26 1730.26 153.95L1755.96 207.16L1808.33 181.09C1810.42 180.05 1812.78 180.13 1814.71 181.12ZM1892.78 -324.3C1893.65 -323.85 1894.44 -323.21 1895.09 -322.4C1897.51 -319.34 1897 -314.89 1893.94 -312.47L1848.12 -276.09L1885.41 -230.26C1886.6 -228.8 1887.16 -226.93 1886.96 -225.07C1886.77 -223.2 1885.83 -221.48 1884.37 -220.3L1838.43 -183.18L1875.75 -138.1C1878.24 -135.1 1877.82 -130.64 1874.82 -128.14C1871.81 -125.66 1867.36 -126.08 1864.87 -129.09L1822.98 -179.67C1821.78 -181.12 1821.19 -183 1821.39 -184.88C1821.58 -186.76 1822.51 -188.48 1823.98 -189.67L1869.97 -226.84L1832.64 -272.72C1831.45 -274.19 1830.9 -276.07 1831.1 -277.95C1831.3 -279.83 1832.25 -281.54 1833.73 -282.72L1885.15 -323.54C1887.4 -325.33 1890.39 -325.52 1892.78 -324.3Z"></path><path id="Path 12 copy" class="shp1" d="M225.92 118.95C225.75 119.12 225.56 119.29 225.36 119.44C224.23 120.3 222.81 120.68 221.4 120.47L172.07 113.5C169.16 113.09 167.13 110.39 167.54 107.48C167.95 104.58 170.64 102.55 173.55 102.96L217.56 109.18L223.2 65.54C223.57 62.61 226.23 60.56 229.16 60.93C232.06 61.31 234.12 63.98 233.74 66.89L227.42 115.89C227.27 117.06 226.74 118.12 225.92 118.95Z"></path><g id="Folder 17"><path id="Path 15" class="shp2" d="M1651.58 610.26L1600.72 486.1L1731.46 516.16L1651.58 610.26Z"></path><path id="Path 16" class="shp3" d="M1657.52 579.98L1606.67 455.82L1737.41 485.88L1657.52 579.98Z"></path></g><use id="Layer 4" href="#img1" x="252" y="458"></use><g id="Folder 17"><path id="Path 15" class="shp2" d="M1978.61 2028.6L1912.4 1866.97L2082.63 1906.11L1978.61 2028.6Z"></path><path id="Path 16" class="shp3" d="M1986.36 1989.19L1920.15 1827.56L2090.37 1866.69L1986.36 1989.19Z"></path></g><g id="Folder 2 copy 3">
	</g><g id="Folder 2 copy 2">
	</g></svg>